<svg width="129" height="40" viewBox="0 0 129 40" fill="none" xmlns="http://www.w3.org/2000/svg">
<path d="M55.5 27.3C54.1 27.3 52.93 27.05 51.99 26.55C51.07 26.03 50.37 25.2 49.89 24.06C49.43 22.92 49.2 21.4 49.2 19.5C49.2 17.6 49.43 16.08 49.89 14.94C50.35 13.8 51.02 12.98 51.9 12.48C52.8 11.96 53.9 11.7 55.2 11.7C55.96 11.7 56.69 11.76 57.39 11.88C58.09 12 58.66 12.14 59.1 12.3V13.8H55.8C55.2 13.8 54.67 13.96 54.21 14.28C53.77 14.6 53.42 15.18 53.16 16.02C52.92 16.84 52.8 18 52.8 19.5C52.8 21 52.93 22.16 53.19 22.98C53.45 23.8 53.82 24.38 54.3 24.72C54.8 25.04 55.4 25.2 56.1 25.2H59.4V26.7C58.96 26.84 58.39 26.97 57.69 27.09C56.99 27.23 56.26 27.3 55.5 27.3ZM66.5859 33.3C65.8459 33.3 65.1259 33.23 64.4259 33.09C63.7259 32.97 63.1459 32.84 62.6859 32.7V31.2H65.9859C67.1059 31.2 67.9559 30.85 68.5359 30.15C69.1359 29.45 69.4359 28.2 69.4359 26.4C69.0559 26.7 68.6059 26.92 68.0859 27.06C67.5859 27.22 67.0359 27.3 66.4359 27.3C65.5959 27.3 64.8159 27.17 64.0959 26.91C63.3959 26.65 62.8359 26.18 62.4159 25.5C61.9959 24.8 61.7859 23.8 61.7859 22.5V12H65.3859V22.5C65.3859 23.54 65.6359 24.25 66.1359 24.63C66.6359 25.01 67.1859 25.2 67.7859 25.2C68.1659 25.2 68.4959 25.14 68.7759 25.02C69.0759 24.88 69.2959 24.74 69.4359 24.6V12H73.0359V25.8C73.0359 27.6 72.7959 29.05 72.3159 30.15C71.8559 31.25 71.1459 32.05 70.1859 32.55C69.2459 33.05 68.0459 33.3 66.5859 33.3ZM82.4824 27.3C81.0824 27.3 79.9124 27.05 78.9724 26.55C78.0524 26.03 77.3524 25.2 76.8724 24.06C76.4124 22.92 76.1824 21.4 76.1824 19.5C76.1824 17.6 76.4124 16.08 76.8724 14.94C77.3324 13.8 78.0024 12.98 78.8824 12.48C79.7824 11.96 80.8824 11.7 82.1824 11.7C82.9424 11.7 83.6724 11.76 84.3724 11.88C85.0724 12 85.6424 12.14 86.0824 12.3V13.8H82.7824C82.1824 13.8 81.6524 13.96 81.1924 14.28C80.7524 14.6 80.4024 15.18 80.1424 16.02C79.9024 16.84 79.7824 18 79.7824 19.5C79.7824 21 79.9124 22.16 80.1724 22.98C80.4324 23.8 80.8024 24.38 81.2824 24.72C81.7824 25.04 82.3824 25.2 83.0824 25.2H86.3824V26.7C85.9424 26.84 85.3724 26.97 84.6724 27.09C83.9724 27.23 83.2424 27.3 82.4824 27.3ZM93.4184 27.3C92.5784 27.3 91.7984 27.17 91.0784 26.91C90.3784 26.65 89.8184 26.18 89.3984 25.5C88.9784 24.8 88.7684 23.8 88.7684 22.5V12H92.3684V22.5C92.3684 23.54 92.6184 24.25 93.1184 24.63C93.6184 25.01 94.1684 25.2 94.7684 25.2C95.1484 25.2 95.4784 25.14 95.7584 25.02C96.0584 24.88 96.2784 24.74 96.4184 24.6V12H100.018V27H97.4684L97.0184 26.1H96.8684C96.5484 26.4 96.1184 26.68 95.5784 26.94C95.0384 27.18 94.3184 27.3 93.4184 27.3ZM103.915 27V12H106.465L106.915 13.2H107.065C107.385 12.9 107.815 12.63 108.355 12.39C108.895 12.13 109.615 12 110.515 12H112.465V14.55H109.165C108.785 14.55 108.455 14.61 108.175 14.73C107.895 14.85 107.675 14.99 107.515 15.15V27H103.915ZM120.432 27.3C118.892 27.3 117.622 27.05 116.622 26.55C115.622 26.03 114.882 25.2 114.402 24.06C113.922 22.92 113.682 21.4 113.682 19.5C113.682 17.6 113.902 16.08 114.342 14.94C114.802 13.8 115.452 12.98 116.292 12.48C117.152 11.96 118.182 11.7 119.382 11.7C120.582 11.7 121.602 11.96 122.442 12.48C123.302 12.98 123.952 13.8 124.392 14.94C124.852 16.08 125.082 17.6 125.082 19.5V20.55H117.282C117.282 22.27 117.582 23.48 118.182 24.18C118.802 24.86 119.752 25.2 121.032 25.2H124.332V26.7C123.892 26.84 123.322 26.97 122.622 27.09C121.922 27.23 121.192 27.3 120.432 27.3ZM117.282 18.45H121.482C121.482 17.15 121.392 16.16 121.212 15.48C121.032 14.78 120.782 14.3 120.462 14.04C120.142 13.78 119.782 13.65 119.382 13.65C118.982 13.65 118.622 13.78 118.302 14.04C117.982 14.3 117.732 14.78 117.552 15.48C117.372 16.16 117.282 17.15 117.282 18.45Z" fill="#FEFFFE"/>
<path d="M13.0127 5.3249C13.4096 4.20501 13.9031 3.12176 14.4877 2.0874C11.9377 2.87523 9.58452 4.19666 7.58451 5.96391C5.5845 7.73116 3.98344 9.90377 2.8877 12.3374H11.3252C11.6562 9.95018 12.2214 7.60135 13.0127 5.3249V5.3249Z" fill="#3657CD"/>
<path d="M34.8248 22.3999C35.5199 22.4935 36.1749 22.7796 36.7161 23.2257C37.2572 23.6719 37.6629 24.2604 37.8873 24.9249C37.9139 24.9982 37.9348 25.0734 37.9498 25.1499H38.0248C38.9915 21.7804 38.9915 18.2069 38.0248 14.8374H28.9873C29.1498 16.5499 29.2373 18.2749 29.2373 19.9999C29.2373 20.5499 29.2248 21.1124 29.2123 21.6624L34.8248 22.3999Z" fill="#3657CD"/>
<path d="M14.4877 37.9124C13.9031 36.878 13.4096 35.7948 13.0127 34.6749C12.2215 32.3942 11.6563 30.0412 11.3252 27.6499H2.8877C3.9813 30.0863 5.58149 32.2618 7.58168 34.0313C9.58186 35.8009 11.9361 37.1239 14.4877 37.9124V37.9124Z" fill="#3657CD"/>
<path d="M11.0125 25.1499C10.85 23.4499 10.7625 21.7124 10.7625 19.9999C10.7625 18.2749 10.85 16.5499 11.0125 14.8374H1.97503C1.00832 18.2069 1.00832 21.7804 1.97503 25.1499H11.0125Z" fill="#3657CD"/>
<path d="M28.6752 12.3374H37.1127C36.017 9.90377 34.4159 7.73116 32.4159 5.96391C30.4159 4.19666 28.0627 2.87523 25.5127 2.0874C26.0973 3.12176 26.5908 4.20501 26.9877 5.3249C27.779 7.60135 28.3442 9.95018 28.6752 12.3374V12.3374Z" fill="#3657CD"/>
<path d="M18.1752 38.6624C19.3891 38.7791 20.6113 38.7791 21.8252 38.6624C22.4032 38.1089 22.896 37.4728 23.2877 36.7749C22.8078 36.2304 22.4991 35.5565 22.4002 34.8374L21.4502 27.6499H13.8252C14.2081 30.4679 15.0042 33.214 16.1877 35.7999C16.6725 36.8659 17.3458 37.8356 18.1752 38.6624V38.6624Z" fill="#3657CD"/>
<path d="M25.3628 21.1499L26.7253 21.3249C26.7378 20.8874 26.7378 20.4499 26.7378 19.9999C26.7378 18.1874 26.6503 16.4624 26.4878 14.8374H13.5128C13.3503 16.4624 13.2628 18.1874 13.2628 19.9999C13.2601 21.7197 13.3435 23.4385 13.5128 25.1499H21.1378C21.0957 24.6107 21.1712 24.0689 21.3589 23.5617C21.5467 23.0546 21.8423 22.5942 22.2253 22.2124C22.6331 21.8086 23.1277 21.503 23.6713 21.3189C24.215 21.1348 24.7934 21.077 25.3628 21.1499V21.1499Z" fill="#3657CD"/>
<path d="M20.0004 1.25013C19.391 1.24777 18.7818 1.27698 18.1754 1.33763C17.346 2.16439 16.6727 3.13411 16.1879 4.20013C15.0033 6.78031 14.2112 9.52314 13.8379 12.3376H26.1754C25.7927 9.52364 24.9966 6.78158 23.8129 4.20013C23.3281 3.13411 22.6548 2.16439 21.8254 1.33763C21.219 1.27698 20.6098 1.24777 20.0004 1.25013V1.25013Z" fill="#3657CD"/>
<path d="M34.0504 28.1624L35.2129 26.9999C35.38 26.836 35.497 26.6278 35.5501 26.3998C35.6032 26.1718 35.5903 25.9334 35.5129 25.7124C35.4386 25.4926 35.3045 25.2978 35.1256 25.1499C34.9468 25.0019 34.7303 24.9067 34.5004 24.8749L25.0379 23.6249C24.8469 23.6018 24.6531 23.6224 24.4712 23.6852C24.2892 23.748 24.124 23.8514 23.9879 23.9874C23.8519 24.1235 23.7485 24.2888 23.6857 24.4707C23.6229 24.6526 23.6023 24.8464 23.6254 25.0374L24.8754 34.4999C24.9072 34.7298 25.0024 34.9463 25.1503 35.1252C25.2983 35.304 25.4931 35.4381 25.7129 35.5124C25.9339 35.5898 26.1723 35.6028 26.4003 35.5496C26.6283 35.4965 26.8365 35.3795 27.0004 35.2124L28.163 34.0499L32.638 38.5124C32.8725 38.7446 33.1892 38.8749 33.5192 38.8749C33.8493 38.8749 34.166 38.7446 34.4005 38.5124L38.513 34.3999C38.6289 34.2843 38.7208 34.1469 38.7836 33.9957C38.8463 33.8445 38.8786 33.6824 38.8786 33.5187C38.8786 33.355 38.8463 33.1928 38.7836 33.0416C38.7208 32.8904 38.6289 32.7531 38.513 32.6374L34.0504 28.1624Z" fill="#F9C747"/>
</svg>
