<svg version="1.2" xmlns="http://www.w3.org/2000/svg" viewBox="0 0 410 124" width="410" height="124">
	<title>Snigdha OS Logo</title>
	<style>
		.s0 { fill: #754ffe } 
	</style>
	<path id="&lt;Compound Path&gt;" fill-rule="evenodd" class="s0" d="m147.2 62.2q-0.1 0.2-0.3 0.4-0.5 0.4-1 0.9-0.9 0.7-1.8 1.5c-2 1.4-4.2 2.6-6.6 3.5-0.6 0.2-3.9 1.2-4 1.5q0.1 0 0.1 0 1.9 0.2 3.8 0.4c2.2 0.5 3.9 1.2 5.4 2.3 0.5 0.3 1.5 0.9 1.7 1.5q-0.5-0.3-1-0.5c-0.9-0.4-2-0.6-3-0.8-5-1.1-9.9 0.5-13.3 2-0.7 0.3-2.8 1.2-3.2 1.6q1.7 0.4 3.3 0.8c2.4 0.7 4.8 1.4 6.8 2.6 2.1 1.2 4 2.6 5.9 4.1 1.4 1.1 2.2 2.9 3.6 4.1q0 0 0 0c-4.6-2.5-13-4.6-20.2-3.1-3.8 0.7-6.9 1.8-9.7 3.5-1.1 0.6-4.6 2.6-5.1 3.5q0.1 0 0.1 0c4.6-1.8 10-3.6 16.5-2.4q0 0.1 0 0.1c-3.2-0.1-6 0.9-8.3 1.9-6.8 2.7-11.8 7.8-14.7 14.3-0.7 1.7-1.4 3.5-2.1 5.3q-0.6 1.5-1.2 3.1c-1.6 2.7-6.7 7-10.3 7.6-2.3 0.5-4.4-1.2-5.7-2-2.2-1.4-4.5-3-5.9-5.2-0.9-1.5-1.5-3.6-2.3-5.3-2.8-6.6-7.4-11.5-14.1-14.3-2.1-0.9-4.5-1.9-7.2-2 0.2-0.6 1.3-1 1.8-1.3q1.9-1 4.3-1.6 1.2-0.2 2.5-0.4-0.1-0.1-0.2-0.2-0.7-0.3-1.3-0.7-1.7-0.7-3.5-1.3c-3.3-1-8.4-1.2-12-0.3-1.9 0.5-3.7 1-5.4 1.7q-1.3 0.7-2.5 1.4 0.1-0.2 0.2-0.3 0.6-0.8 1.2-1.5c2-2.6 4.6-4.8 7.4-6.5q1.8-1 3.6-1.9c-0.5-0.4-2.1-0.6-2.8-0.8-3.6-0.9-7.5-0.9-11.5-0.4q0 0 0-0.1 1-0.7 1.9-1.4c1.2-0.9 2.7-1.7 4.1-2.3 1.7-0.8 3.5-1.4 5.4-1.9q1.4-0.4 2.9-0.7 0 0 0-0.1-0.1 0-0.1-0.1-2.6-0.7-5.1-1.4c-3.8-1.3-7.3-2.7-10.4-4.6-0.8-0.5-3.7-2.3-3.9-3.1q0 0 0 0c4.4 2.8 12.5 0.4 15.3-2.1 1-0.9 1.8-1.8 2.5-3.1 0.1-0.2 0.6-0.9 0.4-1.2q-0.7 0-1.4-0.1c-2.9-0.5-5.9 0.4-7.9 1.2-0.5 0.2-2 1.1-2.4 1q0 0 0 0 0.7-1.5 1.4-3c1-1.6 2-3.1 3.2-4.6 1.2-1.5 2.9-3 4.6-4.1q1-0.6 2.1-1.1c-0.7-1.6-1.1-3.3-1.6-5.1-2.3-9.1-1.3-21.2 1.7-28.9 0.9-2.4 2-4.2 3.4-6 0.4-0.5 1-1.3 1.6-1.5 1.2 1.5 2.3 3 3.4 4.5 1.3 1.6 2.8 3 4.3 4.5 2.9 2.9 5.8 5.6 9.1 8.1 1.6 1.2 3.2 2.4 4.9 3.5q1 0.6 2 1.3 0.8-0.6 1.7-1.2 2.6-1.5 5.2-3 1.8-0.8 3.6-1.7c4.1-1.7 7.8-2.9 13.3-3.4-0.2 0.4-2.1 1.4-2.5 1.7-1.6 1.1-4.1 2.8-5 4.6q0.1 0.1 0.1 0.1 1.1-0.7 2.2-1.4 2.4-1.3 4.7-2.7c2.3-1.3 4.7-2.2 6.9-3.5 4.9-2.9 9.5-6.3 12.8-10.6 0.9-1.1 1.8-2.2 2.5-3.5q0.1 0 0.1 0c1.5 1.3 2.9 4 3.8 6 2.3 5.4 3.9 11.7 3.9 19.5 0 1.7 0.1 3.4-0.1 5.1-0.4 2-0.4 4.1-0.9 6-0.3 1.6-0.9 3.2-1.2 4.8q0.1 0 0.1 0.1c5.4 0.6 11.3 2.2 13.3 6q0 0 0 0c-0.7-0.1-1.5-0.6-2.4-0.8-2-0.5-5-0.3-7.1 0-0.8 0.2-2.1 0.1-2.6 0.6 0.1 0.4 1 0.4 1.4 0.6 1 0.4 2 0.9 2.9 1.5 2.1 1.3 5.5 4.6 6.1 7.2q0 0.1 0 0.1c-2.5-1.2-6.5-3-10.4-2.2-1.6 0.3-3 0.8-4.4 1.2q0 0.1 0 0.2 2.8 1.3 5.5 2.6c2.6 1.1 5.3 1.8 8.4 2.5 1.9 0.4 4.8 0.4 6.6-0.1 0.4-0.1 2.1-0.7 2.1-0.7zm-48.9 44.6c-0.6-2.4-1.1-4.6-1.8-6.9-1.1-3.4-1.9-6.9-2.7-10.6-0.5-2.2-0.6-4.4-1.1-6.6-0.5-3.1-0.8-7.3 0-10.3 0.8-3.3 2.3-5.5 4.1-7.7 0.7-0.9 3.3-3.3 4.3-3.6q-0.5 0.5-1 0.9-1 1.1-1.9 2.2c-1.6 2.2-2.7 4.7-3.4 7.7-0.3 1.2-0.3 2.4-0.5 3.7-0.2 1.5-0.3 3.7-0.1 5.2 0.1 0.5-0.1 1.1 0.2 1.4q0.6-2.1 1.2-4.3c0.8-2.7 2-5.2 3.4-7.3q0.5-0.7 0.9-1.4 0.1 0 0.1 0-0.4 0.9-0.8 1.8c-0.7 2-1.4 4.6-1.4 7.2q0 0 0.1 0c4.6-6.3 13-15 24.8-11.9q-0.2-0.2-0.4-0.5-0.6-0.4-1.1-0.9c-0.8-0.6-1.8-1.1-2.8-1.5-3.2-1.3-7.3-0.4-9.6 1.1q-1 0.8-2.1 1.5 0 0 0 0 0.3-0.5 0.7-1.1c0.8-1.3 1.7-2.6 2.6-3.8 1.8-2.3 3.7-4.4 5.7-6.4q1.1-1.1 2.2-2.2 1.7-1.7 3.5-3.3 0-0.2 0-0.3c-1 0-1.9 0.4-2.7 0.6-2 0.6-4 1.2-5.9 2-2.8 1.1-5.6 1.7-8.9 2.3-1.1 0.2-2.5 0-3.5 0.1q0-0.1 0-0.1c4.8-1.1 9.8-4.9 11.9-8.8q0 0 0 0-0.6 0.2-1.3 0.5c-1 0.3-2.2 0.6-3.4 0.6-0.5 0-1.6 0.1-1.9-0.1q0-0.1 0-0.1c0.9-0.3 1.6-0.4 2.4-0.7 3.3-1.5 4.9-4.3 6.4-7.6q0 0 0-0.1c-1.7 1.3-3.1 2.3-5.4 3q-0.9 0.3-1.8 0.5c0.3-0.4 1.2-0.7 1.7-1 1-0.6 1.8-1.3 2.7-2 3.4-2.7 5.7-8.4 5.9-14.3-0.5 0.2-1.3 1.5-1.7 1.9-1.4 1.5-2.9 2.7-4.7 3.9q-0.5 0.4-1.1 0.8 0.8-0.9 1.5-1.7c1.3-1.7 2.5-3.3 3.6-5.1 0.3-0.5 0.8-1.1 0.9-1.7q-0.1 0-0.1 0 0 0-0.1 0.1-0.5 0.4-1 0.8-1.1 0.7-2.2 1.4 0 0 0 0 1.7-1.9 3.4-3.9c2-2.6 3.7-5.4 4.8-8.9 0.4-1.2 0.8-2.5 1.1-3.7 0.1-0.4 0.3-1.1 0.1-1.4-1.6 2.9-3.3 5.6-5.3 8.2q-3.6 4.1-7.2 8.2c-1.4 1.8-2.5 3.6-3.7 5.6-1.2 2.1-2 4.4-2.9 6.9-0.3 0.7-0.9 1.9-0.7 2.8 0.4 0.2 2.9 1.3 3 1.6q-1.2 0.5-2.5 1c-2.4 1-4.6 2-6.6 3.3-0.9 0.6-2 1.2-2.6 2-0.8 1-1.3 2.4-1.8 3.7q-0.2 0.8-0.4 1.6c0-2.1 0.6-4.4 1.1-6.1 1.2-4.8 2.7-9 4.9-12.7q1.3-1.7 2.5-3.5c0.3-0.4 1-0.9 1.1-1.5q0 0 0 0c-3.7 2.1-7.2 6.4-9.4 10-0.6 0.9-1.1 2-1.5 3.1-0.2 0.5-0.2 1.3-0.6 1.6q0 0-0.1 0c-0.4-1.6 0.1-3.2 0.2-4.7q-0.1 0-0.1 0-0.1 0.1-0.2 0.2-0.4 0.8-0.8 1.5c-0.5 1.1-0.6 2.2-0.9 3.5-0.1 0.5-0.3 1.3-0.1 1.9q0 0.1-0.1 0.1 0 0-0.1 0c-0.7-2.9-1.8-6.5-1-10.2q0.3-1.9 1-3.5 0.4-0.8 0.9-1.5-0.1 0-0.2 0-0.7 0.9-1.5 1.8c-1.1 1.6-2 3.4-2.8 5.3q-0.6 1.9-1.1 3.9c-0.2 0.7-0.2 1.5-0.6 2.1-0.5-0.4-0.7-1.1-1-1.6q-0.7-1.1-1.5-2.3c-1.4-1.8-3.2-3.3-5-4.7q-1-0.8-1.9-1.6c0.2 0.7 1 1.3 1.4 1.8q1.3 1.7 2.5 3.5c2.7 4.3 4.8 9.7 5.3 16.1q0 0-0.1 0c-0.1-1-0.5-1.9-0.9-2.7-1.7-4.1-4.8-6.4-8.9-8.2q-2.1-0.7-4.2-1.4c-0.4-0.2-1.6-0.2-1.8-0.6 0.9-0.1 4.7-1.6 5.1-2.1-0.3-1.9-1.4-3.8-2.1-5.5-2.9-6.7-7.6-11.2-11.6-16.7-1.3-1.6-2.4-3.4-3.4-5.2q-0.7-1.5-1.4-2.9 0 0-0.1 0-0.6 0.9-1.2 1.8c-1.4 2.3-2.1 5.1-2.8 8.1-2 8.5 0 19.5 2.5 25.8 0.4 1.2 1 2.7 1.9 3.4 0.5 0.4 2.3 1.2 2.5 1.7q0 0 0 0c-3.2-1.3-7.8 0.2-9.7 1.5-0.5 0.3-1.6 0.7-1.8 1.3 1.5-0.3 3.6-0.6 5.4-0.3 0.5 0.1 1.5 0 1.7 0.4-1.1 0.1-5.7 1.6-6.2 2.1q0 0.1 0 0.1c3-0.1 5.6 0.4 7.9 1.1q1.3 0.5 2.6 1 0 0.1 0 0.2c-3.2 1-4.2 5.3-6.7 7.2-1.3 1.1-2.9 1.7-4.7 2.1-1.1 0.3-2.5 0.3-3.4 0.8 0.2 0.5 1.4 0.7 2 0.9 2.2 0.9 4.7 1.4 7.2 2.1 3.6 1 6.9 2.1 9.6 4 1 0.7 1.9 1.5 2.8 2.3 0.6 0.5 2.8 2.7 3 3.5q0 0 0 0-0.1-0.2-0.3-0.3-0.5-0.4-0.9-0.8-1.1-0.6-2.1-1.2c-2.9-1.3-7.4-2.2-11.5-1.4-0.8 0.2-4 0.7-4.2 1.2 3.2-0.1 7.1 1.2 9.4 2.2 0.5 0.2 2.2 0.9 2.4 1.3-4.8-0.1-9.6 2.2-12.5 4.1-0.6 0.4-2.8 1.6-3 2.3q0.1 0 0.1 0c1.7-0.8 3.5-1.4 5.5-1.8 7.9-1.8 14.3 1.5 18.5 4.8 1 0.7 3.8 3.2 4.1 4.3q-1.3-0.5-2.5-1c-1.3-0.4-2.6-0.5-4.1-0.8-0.6-0.1-1.9-0.3-2.5 0q0 0.1 0 0.2c2.1 1.5 4.8 2.5 7 4 0.9 0.6 2.2 2.4 3 2.7 0.7 0.3 1.3-0.4 1.9-0.4q0 0 0 0 0.1 0.8 0.2 1.6c0.2 1.2 0.9 4.6 1.5 5.1q0.1 0 0.1-0.1 0.4-3.5 0.7-7 0.5-2.8 1-5.5c0.4-2 0.9-4.7 0.4-6.9-0.4-1.4-1.3-2.5-1.9-3.8-1.9 0.2-3.8-0.4-4.6-1.5-0.7-0.8-1-1.8-1.2-3-0.2-1.1 0.1-2.3-0.6-2.9q-1.5-1.2-3.1-2.1-0.9-0.5-1.9-0.9-0.5-0.7-1.1-1.3c-0.7-0.9-1.6-1.8-2.6-2.4-0.7-0.6-1.6-1-2.6-1.4-0.3-0.2-1.2-0.2-1.4-0.6q0.1 0 0.2 0c1.1 0.3 2.4 0.1 3.5 0.4 2.6 0.5 4.8 1.4 6.8 2.6 2.7 1.7 5 4 7 6.5q1.3 1.7 2.6 3.4 0 0 0 0c0-3.1-0.9-6.8-2-8.9q0 0 0.1 0 0 0 0.1 0 0.7 1.3 1.5 2.5c1 1.7 1.7 3.7 2.4 5.7 0.2 0.7 0.8 4 1.1 4.3q0 0 0.1 0 0-0.1 0-0.1c0.3-0.8 0.2-5.5 0-6.5-0.2-1.5-0.1-2.8-0.5-4.1-1.1-4.1-3.1-7.7-6.1-10q0 0 0-0.1c3.7 2.6 6.8 5.7 8.2 10.6 0.9 3.3 0.6 8.4 0 11.9q-0.4 2.9-0.8 5.8-1.5 7.2-3.1 14.5c-1.4 7 2.4 11.1 6.2 13.8 1.1 0.7 2.6 2 4.2 2.2q0 0 0 0c0-0.8 0.1-2.2-0.2-2.8-3-0.7-2.1-2.6-3.8-4-1.1-0.8-2.5-1.4-3-2.7-0.6-1.4 0.2-2.7 1.1-3.2 1.3-0.8 3.2-0.5 5.1-0.7 1-0.2 2.4-0.2 3.3 0 2.6 0.4 4.7 0.1 5.1 2.7 0.3 1.8-1.8 2.9-2.8 3.6-1.1 0.8-1.3 2.1-2.1 3.2-0.4 0.6-1.5 0.7-1.8 1.2-0.2 0.5-0.3 2-0.1 2.6q0 0 0 0c1.2-0.2 3-1.6 3.9-2.2 2.9-2.2 7.1-5.9 5.9-11.5zm-32-44.9c1.1 1.8 2.4 4.1 2.6 6.7q0 0-0.1 0 0 0 0 0c-1.2-4-5.6-7.7-11-7q0 0 0-0.1c0.8-0.3 1.6-0.9 2.5-1.2 0.8-0.3 1.8-0.2 2.7-0.6q0.9 0 1.9 0.1c0.6 0.5 1 1.4 1.4 2.1zm34.3 19.4c-0.6 0.1-1.5 0.1-2-0.1-0.6 0.4-1.3 2.7-1.6 3.5q0 0.1 0 0.1 0.1 0 0.2 0c1.3-1.7 4.2-2.2 5.9-3.5 1.9-1.4 2.6-4.6 2.9-7.5q-0.1 0-0.1 0c-0.6 0.7-1.5 1.2-2.2 1.8 0.1 3.1-0.5 5.2-3.1 5.7zm12.3 0.7q-1.1 0.6-2.3 1.2-0.6 0.4-1.1 0.8 0.3-0.4 0.6-0.7c0.4-0.7 2.2-2.2 2.9-2.7 1.1-0.9 2.1-2 3.3-2.8 2-1.5 4-2.6 6.5-3.6q0-0.1 0-0.2c-1.3-0.7-3-0.9-5.1-0.9q-1 0.1-1.9 0.3c-1.9 0.5-3.8 1.5-4.9 2.9-1.5 1.9-2.2 4.7-4.2 6.3-1.3 1-2.7 2.1-4.3 2.8-1.5 0.7-3.1 1.2-3.9 2.5-1.5 2.2-0.5 5.4 0.2 7.8q0.5 2.1 1 4.1 0.5 2.3 1 4.6 0.1 0 0.1-0.1 0.5-1.2 1-2.5c0.8-2.7 1.2-6 0.9-9.5q2.1-1.7 4.2-3.5c2.9-2.2 5.9-4.2 9.1-6.1 1.7-0.9 3.6-1.7 5.5-2.4 0.6-0.2 2.3-0.5 2.7-0.9q-0.1 0-0.1-0.1c-4.5-0.1-8.2 1.1-11.2 2.7zm11.4-38q0.2-0.6 0.4-1.1c0.6-1.5 0.9-3 1.4-4.7 1.7-6.7 2.1-16.8 0-23.5-0.3-1.1-1.1-4-1.8-4.6 0.8 1.8 1 3.9 1.4 6.2 1.6 9.1-1.9 19.2-5.1 24.6q-1.6 2.8-3.4 5.3c-0.4 0.6-1.3 1.2-1.5 1.9 0.7-0.2 1.4-0.9 2-1.3 1.3-0.7 2.6-1.3 4-1.9q1.3-0.4 2.6-0.9zm-52.4 47.4q-0.2-0.4-0.5-0.9c0.6 0.1 1.7 0.3 2 0.7 0.6 0.9-0.5 4.5-1 4.7q0 0 0-0.1c0.5-1.4 0-3.4-0.5-4.4zm-5.6-39.4c0.3 0.2 3.6 1.6 3.6 1.7-6.5-0.3-9.3-3.2-12.2-7.1-2.8-3.9-5.1-8.1-6.6-13.4-0.5-1.6-0.7-3.4-1-5.2-0.8-4.1-0.5-9.5 0.4-13.1 0.4-1.6 0.6-3.2 1.6-4.1q0.1 0 0.3 0c0.4 0.9 0.5 2.1 0.8 3.1 0.6 1.8 1.3 3.6 2.2 5.1 1.7 2.9 3.8 5.4 5.5 8.2q0 0 0 0c-1-0.3-2.2-2.4-3.2-3q0 0 0 0c0.1 0.7 0.5 1.4 0.8 1.9 0.9 2.1 2 3.8 3.2 5.5 0.4 0.5 1.5 1.5 1.6 2.1q0 0 0 0-0.1-0.1-0.1-0.1-0.6-0.6-1.3-1.2c-1.7-1.4-3.3-3.3-4.6-5.1q-0.9-1.2-1.7-2.5 0 0-0.1 0c-0.2 7.3 1.4 10.7 4.7 14.8 0.6 0.7 1.5 1.5 2.3 2.1 0.4 0.2 1.3 0.5 1.4 0.9-1.9-0.3-3.6-1.4-4.9-2.4-0.5-0.4-1-1.2-1.6-1.4q0 0.1 0 0.1c1.7 3.9 3.7 7.3 8.2 8.3q0 0 0 0.1 0 0 0 0c-2.1 0-3.7-0.4-5.2-0.9q0 0.1 0.1 0.2c1 2.1 3.7 4.2 5.8 5.4zm19.7 25.7q0 1.6 0.1 3.1-0.1 0-0.2 0 0.1 0 0.1 0-0.2-2.1-0.4-4.2c-0.5-2.9-0.6-5.8-1.3-8.6-1-4.1-2-8-4-11.3q-0.9-1.5-1.9-3-0.7-0.7-1.4-1.5c1 0.4 2.9 2.9 3.5 3.8 1.7 2.2 3.2 4.5 4.2 7.5 0.4 1.4 0.6 2.9 0.9 4.4q0.2 2.4 0.3 4.9 0.1 1.1 0.1 2.2 0 1.3 0 2.7zm7.8-22.5c-2.4 4.1-3.5 9.4-4.6 14.8-0.5 2.5-0.5 5-0.9 7.6q-0.1 1.7-0.2 3.4-0.1-0.1-0.1-0.1c0-7.9 0-15.6 2.3-21.1 1.1-2.4 2.7-4.5 4.2-6.4q1.1-1.1 2.1-2.1 0.1 0 0.1 0-0.6 0.7-1.2 1.3-0.8 1.3-1.7 2.6z"/>
	<path id="SNIGDHA OS" class="s0" aria-label="SNIGDHA
OS"  d="m170.2 2.3h0.7v15.8q0 0.9 0.3 1.2 0.5 0.4 1.9 0.4h4.1v5.2h-7q-3.1 0-5.1-0.6-1.8-0.7-2.8-2.3-0.8-1.7-1.1-3.6-0.2-2-0.2-5.2 0-3.3 0.2-5 0.3-1.7 1.1-3.2 1-1.5 2.8-2.1 2-0.6 5.1-0.6zm9.2 39.7v-22.3h0.6q2.4 0 3.7 0.1 1.3 0.1 2.5 0.5 1.2 0.4 1.7 1 0.5 0.5 0.8 1.9 0.5 1.3 0.5 2.8 0.1 1.6 0.1 4.4 0 2.9-0.1 4.6 0 1.7-0.5 3.2-0.3 1.5-0.8 2.1-0.5 0.6-1.7 1.1-1.2 0.4-2.5 0.5-1.3 0.1-3.7 0.1zm-17.6-12.3h6.9q0.8 0 1 0.3 0.1 0.2 0.1 0.9v4.3q0 0.9 0.2 1.2 0.3 0.4 1.3 0.4h5.9v5.2h-8q-4.1 0-6.1-1.4-2.1-1.4-2.1-4.8v-4.9q0-1.2 0.8-1.2zm11.3-22.2v-5.3h7q4 0 6.1 1.4 2 1.4 2 4.8v4.9q0 1.2-0.7 1.2h-7q-0.7 0-0.9-0.2-0.2-0.2-0.2-1v-4.2q0-0.9-0.2-1.3-0.2-0.3-1.2-0.3zm47.5-5.3h5.7v36.7q0 1.9-0.6 2.5-0.6 0.6-2.4 0.6h-7.8q-3.3 0-4.3-1-1-1-1.8-5.1-1.5-8.1-4.4-26.3-0.3-1.4-0.7-1.8-0.4-0.3-1.4-0.4h-6.7v-5.2h11.9q1.4 0 2.2 0.4 0.8 0.3 1.3 1.4 0.6 1 0.7 2 0.3 1 0.5 2.3 0.2 1.6 0.7 4.7 1 6.2 3 17.6 0.7 4.8 1 5.4 0.3 0.6 1.1 0.7v-32.3q0-1 0.6-1.6 0.5-0.6 1.4-0.6zm-24.4 39.8v-32.7h5.7q0.9 0 1.4 0.6 0.6 0.6 0.6 1.6v27.4q0 1.8-0.5 2.5-0.5 0.6-2 0.6zm46.8-39.8v39.8h-5.8q-1.9 0-2.5-0.6-0.5-0.6-0.5-2.5v-33.5q0-2 0.5-2.6 0.6-0.6 2.5-0.6zm16.7 0h0.6v33q0 0.8 0.4 1.2 0.5 0.4 1.9 0.4h4.1v5.2h-7q-2.2 0-3.7-0.3-1.4-0.4-2.5-1.4-1.1-1-1.7-2.3-0.5-1.2-0.9-3.8-0.5-3.8-0.5-10.1 0-6.5 0.1-9.1 0.1-2.6 0.4-5.1 0.4-2.6 0.9-3.8 0.6-1.2 1.7-2.2 1.1-1.1 2.5-1.3 1.5-0.4 3.7-0.4zm2.8 23.4v-5.3h9.7q5.4 0 5.4 5v11.4q0 3.4-0.5 4.4-0.5 0.9-3 0.9h-5.2v-14.9q0-0.8-0.3-1.2-0.2-0.3-1.2-0.3zm0-18.1v-5.3h7q4 0 6 1.4 2.1 1.4 2.1 4.8v4.9q0 1.2-0.8 1.2h-6.9q-0.8 0-0.9-0.2-0.2-0.2-0.2-1v-4.2q0-0.9-0.3-1.3-0.2-0.3-1.2-0.3zm48.6 3.8l-0.1 10.7 0.1 9.3q0 6.6-1.7 8.7-1.6 2-6 2h-8v-5.2h4q1.4 0 1.8-0.4 0.5-0.3 0.5-1.2v-26.1q0-1-0.5-1.3-0.4-0.3-1.8-0.3h-4v-5.3h8.6q4 0 5.5 1.9 1.6 1.8 1.6 7.2zm-17.4-9.1v39.9h-5.8q-1.8 0-2.4-0.6-0.6-0.7-0.6-2.6v-33.5q0-1.9 0.6-2.5 0.6-0.7 2.4-0.7zm39.9 16.2v5.2h-6v18.4h-5.8q-1.9 0-2.5-0.6-0.5-0.6-0.5-2.5v-36.7h6.8q0.9 0 1.4 0.6 0.6 0.6 0.6 1.6v14zm2.2 21.4v-37.6h5.7q1.9 0 2.5 0.6 0.6 0.6 0.6 2.6v36.6h-6.9q-0.8 0-1.4-0.6-0.5-0.6-0.5-1.6zm31.4-37.6v5.3h-5.1q-0.9 0-0.9 0.4v34.1h-5.8q-1.8 0-2.4-0.6-0.6-0.6-0.6-2.5v-33.5q0-2 0.6-2.6 0.6-0.6 2.4-0.6zm2.2 16.2v-16.2h5.8q1.9 0 2.4 0.6 0.6 0.6 0.6 2.6v33.4q0 1.9-0.6 2.6-0.6 0.6-2.4 0.6h-5.8v-18.4h-5.9v-5.2zm-121.5 49.8h0.6v33q0 0.8 0.4 1.2 0.4 0.4 1.9 0.4h4v5.2h-6.9q-2.2 0-3.7-0.3-1.5-0.4-2.6-1.3-1-1.1-1.6-2.4-0.6-1.2-0.9-3.8-0.5-3.8-0.5-10.1 0-6.5 0.1-9.1 0.1-2.6 0.4-5.1 0.3-2.5 0.9-3.8 0.6-1.2 1.6-2.2 1.1-1.1 2.6-1.3 1.5-0.4 3.7-0.4zm2.8 5.3v-5.2h7q2.2 0 3.6 0.3 1.5 0.3 2.6 1.4 1.1 1 1.6 2.3 0.6 1.2 0.9 3.7 0.5 3.8 0.5 10.3 0 6.4-0.1 9 0 2.6-0.4 5.2-0.3 2.4-0.9 3.7-0.5 1.2-1.6 2.3-1.1 0.9-2.6 1.3-1.4 0.3-3.6 0.3h-0.7v-33q0-0.8-0.4-1.2-0.4-0.4-1.8-0.4zm32-5.2h0.7v15.8q0 0.9 0.3 1.2 0.5 0.4 1.9 0.4h4.1v5.2h-7q-3.1 0-5.1-0.6-1.8-0.7-2.8-2.3-0.8-1.7-1.1-3.6-0.2-2-0.2-5.2 0-3.3 0.2-5 0.3-1.7 1.1-3.2 1-1.5 2.8-2.1 2-0.6 5.1-0.6zm9.2 39.7v-22.3h0.6q2.4 0 3.7 0.1 1.3 0.1 2.5 0.5 1.2 0.4 1.7 1 0.4 0.5 0.8 1.9 0.5 1.3 0.5 2.8 0.1 1.6 0.1 4.4 0 2.9-0.1 4.6 0 1.7-0.5 3.2-0.4 1.5-0.8 2.1-0.5 0.6-1.7 1.1-1.2 0.4-2.5 0.5-1.3 0.1-3.7 0.1zm-17.6-12.3h6.9q0.8 0 1 0.3 0.1 0.2 0.1 0.9v4.3q0 0.9 0.2 1.2 0.3 0.4 1.3 0.4h5.9v5.2h-8q-4.1 0-6.1-1.4-2.1-1.3-2.1-4.8v-4.9q0-1.2 0.8-1.2zm11.3-22.2v-5.3h7q4 0 6.1 1.4 2 1.4 2 4.8v4.9q0 1.2-0.7 1.2h-7q-0.7 0-0.9-0.2-0.2-0.2-0.2-1v-4.2q0-0.9-0.2-1.3-0.3-0.3-1.2-0.3z"/>
</svg>