<svg id="Layer_1" enable-background="new 0 0 512 512" viewBox="0 0 512 512" xmlns="http://www.w3.org/2000/svg"><g><path clip-rule="evenodd" d="m256 31 225 225-225 225-225-225z" fill="#cc4342" fill-rule="evenodd"/><path clip-rule="evenodd" d="m177.5 109.5 14.9-14.9 51.1 51.1c3.8-1.8 8.1-2.9 12.6-2.9 15.9 0 28.8 12.9 28.8 28.8 0 4.5-1 8.8-2.9 12.6l45.9 45.9c3.5-1.5 7.4-2.4 11.5-2.4 15.9 0 28.8 12.9 28.8 28.8s-12.9 28.8-28.8 28.8-28.8-12.9-28.8-28.8c0-4.1.9-8 2.4-11.6l-46.5-46.5v136.2c10.7 4.2 18.3 14.6 18.3 26.8 0 15.9-12.9 28.8-28.8 28.8s-28.8-12.9-28.8-28.8c0-12.2 7.6-22.6 18.3-26.8v-136.1c-10.7-4.2-18.3-14.6-18.3-26.8 0-3.7.7-7.2 2-10.5z" fill="#e6e6e6" fill-rule="evenodd"/><path d="m200.8 94.7 44.1 44.1c27.2-9.2 53.3 16.9 44.1 44.1l40.5 40.4c22.3-6.7 44.8 10 44.8 33.3 0 19.2-15.6 34.8-34.8 34.8-23.3 0-40-22.5-33.3-44.8l-33.7-33.6v117.9c20.4 11 24.7 38.7 8.1 55.2-13.6 13.6-35.6 13.6-49.2 0-16.6-16.5-12.3-44.2 8.1-55.2v-128.6c-14.1-7.6-21.2-23.8-17.1-39.4l-44.9-44.9-138 138 216.5 216.5 216.5-216.5-216.5-216.5zm-14.8 14.8 47.5 47.5c1.6 1.6 2.2 4.1 1.3 6.4-2.7 7-1.8 15 2.4 21.1 2.5 3.7 6 6.6 10.2 8.3 2.4.8 4.1 3 4.1 5.7v136.3c0 2.4-1.4 4.6-3.8 5.6-15.2 6-19.4 25.7-7.8 37.4 14.3 14.3 38.9 4.1 38.9-16.1 0-4.8-1.4-9.2-3.9-12.8-2.5-3.7-6-6.6-10.2-8.3-2.4-.8-4.1-3-4.1-5.7v-136.4c0-5.3 6.4-8 10.2-4.3l46.5 46.5c1.7 1.7 2.3 4.3 1.3 6.6-6.5 14.9 4.3 31.9 20.9 31.9 20.3 0 30.4-24.6 16.1-38.9-5.3-5.3-13.2-7.8-20.8-6.2-1.4.3-2.8.7-4.1 1.3-2.3 1.2-5.1.8-7-1.1l-45.9-45.9c-1.8-1.8-2.3-4.5-1.2-6.9 8.3-17.1-6.9-36.5-25.7-32.2-1.6.4-3.1.9-4.5 1.6-2.3 1.3-5.2 1-7.2-1l-46.9-46.9zm74.3-82.7 225 225c2.4 2.4 2.4 6.2 0 8.5l-225 225c-2.4 2.4-6.2 2.4-8.5 0l-225-225c-2.4-2.3-2.4-6.1 0-8.5l225-225c2.3-2.4 6.1-2.4 8.5 0z"/></g></svg>