<svg id="a" height="24" viewBox="0 0 24 24" width="24" xmlns="http://www.w3.org/2000/svg"><g fill="#3b82f6"><path d="m20 4h-16c-1.1046 0-2 .8954-2 2v12c0 1.1046.8954 2 2 2h16c1.1046 0 2-.8954 2-2v-12c0-1.1046-.8954-2-2-2zm-13.293 12.707c-.1953.1953-.4512.293-.707.293s-.5117-.0977-.707-.293c-.3906-.3906-.3906-1.0234 0-1.4141l3.293-3.293-3.293-3.293c-.3906-.3906-.3906-1.0234 0-1.4141s1.0234-.3906 1.4141 0l4 4c.3906.3906.3906 1.0234 0 1.4141l-4 4zm11.293.293h-6c-.5522 0-1-.4473-1-1s.4478-1 1-1h6c.5522 0 1 .4473 1 1s-.4478 1-1 1z" opacity=".3"/><path d="m6.707 16.707c-.1953.1953-.4512.293-.707.293s-.5117-.0977-.707-.293c-.3906-.3906-.3906-1.0234 0-1.4141l3.293-3.293-3.293-3.293c-.3906-.3906-.3906-1.0234 0-1.4141s1.0234-.3906 1.4141 0l4 4c.3906.3906.3906 1.0234 0 1.4141l-4 4zm11.293.293h-6c-.5522 0-1-.4473-1-1s.4478-1 1-1h6c.5522 0 1 .4473 1 1s-.4478 1-1 1z"/></g></svg>