<svg clip-rule="evenodd" fill-rule="evenodd" height="512" image-rendering="optimizeQuality" shape-rendering="geometricPrecision" text-rendering="geometricPrecision" viewBox="0 0 512 512" width="512" xmlns="http://www.w3.org/2000/svg" xmlns:xodm="http://www.corel.com/coreldraw/odm/2003"><g id="Layer_x0020_1"><path d="m194.56 7.48 5.76 23.28c-22.66 5.57-44.34 14.54-64.32 26.6l-12.32-20.56c22.01-13.29 45.91-23.18 70.88-29.32zm117.12 23.28c22.66 5.57 44.34 14.54 64.32 26.6l12.4-20.56c-22.04-13.3-45.96-23.18-70.96-29.32zm-274.88 92.91c-13.29 22.01-23.18 45.91-29.32 70.87l23.28 5.76c5.57-22.65 14.54-44.34 26.6-64.31zm-10.2 97.55-23.72-3.6c-3.84 25.43-3.84 51.29 0 76.72l23.72-3.6c-3.47-22.99-3.47-46.53 0-69.52zm349.4 233.38c-19.95 12.05-41.61 21.02-64.24 26.6l5.76 23.28c24.94-6.15 48.81-16.03 70.8-29.32zm109.4-163.86 23.72 3.6c3.84-25.43 3.84-51.29 0-76.72l-23.72 3.6c3.47 22.99 3.47 46.53 0 69.52zm-4.16 20.92c-5.57 22.65-14.54 44.34-26.6 64.31l20.56 12.4c13.3-22.04 23.18-45.96 29.32-70.95zm-190.48 173.74c-23.04 3.47-46.48 3.47-69.52 0l-3.6 23.72c25.43 3.84 51.29 3.84 76.72 0zm152-91.79c-13.84 18.74-30.41 35.29-49.16 49.11l14.24 19.32c20.69-15.21 38.97-33.43 54.24-54.07zm-49.16-324.37c18.75 13.83 35.33 30.4 49.16 49.15l19.32-14.4c-15.22-20.63-33.45-38.85-54.08-54.07zm-324.36 49.15c13.83-18.75 30.41-35.32 49.16-49.15l-14.4-19.32c-20.63 15.22-38.86 33.44-54.08 54.07zm385.4 17.6c12.05 19.95 21.02 41.61 26.6 64.23l23.28-5.76c-6.15-24.93-16.04-48.8-29.32-70.79zm-233.4-109.39c23.04-3.47 46.48-3.47 69.52 0l3.6-23.72c-25.43-3.84-51.29-3.84-76.72 0zm-139.68 441.8-49.56 11.56 11.56-49.55-23.36-5.48-11.56 49.55c-4.05 17.3 11.54 32.89 28.84 28.84l49.52-11.36zm-56.36-64.87 23.36 5.44 8-34.36c-11.66-19.6-20.35-40.81-25.8-62.95l-23.28 5.76c5.22 21.2 13.15 41.65 23.6 60.83zm77.64 59.99 5.44 23.36 25.28-5.88c19.18 10.45 39.63 18.38 60.84 23.6l5.76-23.28c-22.1-5.51-43.26-14.26-62.8-25.96zm-28.81-308.09c-36.59 66.25-34.3 147.14 5.97 211.22l-20 85.31 85.32-19.99c74.84 47.13 171.29 41.78 240.47-13.33 69.17-55.1 95.92-147.92 66.7-231.39-59.29-169.3-292.26-187.89-378.46-31.82z" fill="#3a76f0" fill-rule="nonzero"/><path d="m-3632.44 1137.31c142.96-49.28 92.44-211.16 106.92-206.34 93.59 45.76 198.84 145.6 198.84 295.36 0 114.82-89.02 216.32-218.4 216.32-114.77 5.2-212.03-83.57-217.23-198.35-5.41-119 105.74-205.79 105.74-184.37.99 12.2 11.35 77.38 24.13 77.38z" fill="#e73d76"/><path d="m-2691.65 1017.87c76.8 4.51 121.77 38.29 126.14 69.82 2.13 20.62-11.57 36.65-35.35 36.65-34.74 0-38.28-46.3-98.1-46.3-26.97 0-49.75 11.22-49.75 35.55 0 50.84 191.65 21.31 191.65 133.26 0 64.53-51.65 106.81-128.75 106.81-67.81 0-135.97-30.74-135.63-83.67.12-15.97 12.02-30.62 27.88-30.62 39.94 0 39.57 59.33 103.16 59.33 44.59 0 59.82-24.34 59.82-41.3 0-61.25-192.78-23.69-192.78-138.89 0-62.35 51.22-105.35 131.71-100.64zm42.06 403.05c123.03 74.37 267.08-68 189.81-192.33 28.85-164.81-115.36-305.83-278.27-275.54-122.71-74.76-267.39 67.13-190.44 191.7-29.38 163.57 114.01 307.61 278.9 276.17z" fill="#178cc8"/><path d="m-2148.34 1442.86h105.65v-341.33h-105.65zm274.55-179.17c0-47.98 22.09-76.58 64.38-76.58 38.85 0 57.51 27.44 57.51 76.58v179.18l105.17-.01s0-124.68 0-216.11-51.83-135.64-124.2-135.64c-72.4 0-102.86 56.4-102.86 56.4v-45.98h-101.35v341.33h101.35s0-126.58 0-179.17zm-222.22-206.85c34.5 0 62.47-28.22 62.47-63 0-34.77-27.97-62.97-62.47-62.97-34.52 0-62.48 28.2-62.48 62.97 0 34.78 27.96 63 62.48 63z" fill="#10658f"/><path d="m-5239.92 1594.94c.02 7.81 2.31 120.68 120.76 127.72 0 32.55.03 56.15.03 87.21-8.97.52-77.97-4.49-120.93-42.8l-.13 169.78c1.63 117.84-85.08 189.54-198.44 164.78-195.46-58.47-130.51-348.37 65.75-317.34 0 93.59.05-.03.05 93.59-81.07-11.93-108.19 55.51-86.65 103.81 19.61 43.96 100.34 53.5 128.49-8.53 3.19-12.14 4.79-25.98 4.79-41.52v-337.13z"/><g fill-rule="nonzero"><path d="m-4469.99 1933.14c-13.44 70.49-29.86 138.07-78.5 173.37-15.02-106.54 22.04-186.55 39.25-271.5-29.34-49.39 3.53-148.79 65.42-124.29 76.15 30.12-65.95 183.63 29.44 202.8 99.6 20.01 140.26-172.81 78.51-235.51-89.24-90.55-259.76-2.07-238.79 127.57 5.1 31.69 37.84 41.3 13.08 85.04-57.11-12.66-74.15-57.7-71.96-117.76 3.53-98.29 88.32-167.11 173.36-176.63 107.56-12.04 208.5 39.48 222.44 140.65 15.69 114.2-48.55 237.87-163.55 228.98-31.18-2.43-44.26-17.87-68.7-32.72z" fill="#d0272c"/><path d="m-3756.02 1594.51-33.39 89.04v356.14h122.38v66.82h66.81l66.75-66.82h100.14l133.56-133.51v-311.67zm44.49 44.49h367.26v244.88l-77.92 77.92h-122.4l-66.73 66.73v-66.73h-100.21zm122.42 222.65h44.52v-133.55h-44.52zm122.41 0h44.51v-133.55h-44.51z" fill="#5a3e85"/><path d="m-2698.74 1733.62c-11.72.21-21.62 10.19-21.41 21.58.21 11.81 9.93 21.04 21.98 20.9 12.08-.15 21.24-9.48 21.13-21.54-.1-11.83-9.77-21.16-21.7-20.94zm150.41 136.23c-9.29-.07-17.18 7.54-17.56 16.93-.4 10.03 7.4 18.28 17.33 18.3 9.61.03 17.2-7.23 17.55-16.8.37-10.05-7.43-18.36-17.32-18.43zm-92.53 18.41c.38-10.01-7.67-18.41-17.7-18.45-9.92-.04-18.24 8.47-17.89 18.33.32 9.43 8.26 17.05 17.77 17.06 9.49.01 17.45-7.4 17.82-16.94zm109.84 164.41c-14.63-1.53-30.01 6.91-45.31 8.48-46.63 4.77-88.4-8.23-122.85-40.08-65.51-60.59-56.15-153.5 19.64-203.15 67.36-44.13 166.15-29.42 213.64 31.81 41.45 53.43 36.58 124.36-14.02 169.25-23.61 20.95-13.71 27.63-7.57 51.97-13.6-6.06-28.68-16.73-43.53-18.28zm-302.83-319.04c-11.95-.36-21.78 8.78-22.13 20.56-.35 11.94 8.78 21.5 20.82 21.81 11.93.3 21.94-8.84 22.38-20.47.44-11.59-9.66-21.57-21.07-21.9zm72.22 213.69c-18.57-2.3-35.48-4.83-52.48-6.27-5.87-.49-12.84.21-17.82 3.02-16.51 9.32-32.34 19.84-51.1 31.56 3.44-15.57 5.67-29.2 9.62-42.32 2.9-9.63 1.55-15-7.33-21.28-115.1-81.26-78.79-230.75 49.97-272.81 100.32-32.78 226.22 24.88 236.57 135.64-96.71 5.05-176.11 70.06-167.43 172.46z" fill="#3caf41"/><path d="m-2014.21 1705.12c79.75 0 144.4 65.1 144.4 145.39 0 80.3-64.65 145.39-144.4 145.39s-144.4-65.09-144.4-145.39c0-80.29 64.65-145.39 144.4-145.39zm230.6 8.52c39.88 0 72.2 61.27 72.2 136.87.13 18.22-7.61 136.88-72.19 136.88-39.88 0-72.21-61.3-72.21-136.88s32.33-136.87 72.2-136.87zm111.61 14.25c14.02 0 25.39 54.9 25.39 122.62 0 67.7-11.37 122.62-25.39 122.62-14.03 0-25.39-54.9-25.39-122.62s11.36-122.62 25.39-122.62z" fill="#1e1b1e"/><path d="m-1229.55 1594.85c-28.14 0-51.13 22.99-51.13 51.13s22.99 51.13 51.13 51.13h51.14v-51.13c0-28.14-22.65-51.13-51.14-51.13zm-187.02 323.95c0 28.14 22.99 51.13 51.13 51.13s51.13-22.99 51.13-51.13v-51.13h-51.13c-28.48 0-51.13 22.99-51.13 51.13zm136.23 0v136.58c0 28.14 23 51.13 51.14 51.13s51.13-22.99 51.13-51.13v-136.58c0-28.14-22.99-51.13-51.13-51.13-28.49 0-51.14 22.99-51.14 51.13zm187.03 187.71c28.14 0 51.13-22.99 51.13-51.13s-22.99-51.13-51.13-51.13h-51.13v51.13c0 28.14 22.99 51.13 51.13 51.13zm136.24-136.58c28.14 0 51.13-22.99 51.13-51.13s-22.99-51.13-51.13-51.13h-136.24c-28.14 0-51.13 22.99-51.13 51.13s22.99 51.13 51.13 51.13zm51.13-187.71c0-28.14-22.99-51.13-51.13-51.13s-51.14 22.99-51.14 51.13v51.13h51.14c28.14.35 51.13-22.65 51.13-51.13zm-136.24 0v-136.58c0-28.14-22.99-51.13-51.13-51.13s-51.13 22.99-51.13 51.13v136.58c0 28.14 22.99 51.13 51.13 51.13 28.48.35 51.13-22.65 51.13-51.13zm-187.37-51.13h-135.89c-28.14 0-51.13 22.99-51.13 51.13s22.99 51.13 51.13 51.13h136.24c28.14 0 51.13-22.99 51.13-51.13-.34-28.14-22.99-51.13-51.48-51.13z" fill="#e01e5a"/><path d="m-909.22 1020.7-80.97 408.28s-11.33 28.31-42.47 14.72l-187.72-143.67c25.23-22.69 220.97-198.65 229.52-206.63 13.23-12.35 5.03-19.7-10.36-10.36l-289.11 183.59-111.54-37.55s-17.55-6.22-19.25-19.81 19.82-20.95 19.82-20.95l454.71-178.38s37.37-16.42 37.37 10.76z" fill="#23b7ec"/></g></g></svg>