<svg id="Layer_1" enable-background="new 0 0 468.001 468.001" height="512" viewBox="0 0 468.001 468.001" width="512" xmlns="http://www.w3.org/2000/svg"><g><g><g><g><path d="m212.392 48.013c13.839 39.396 14.121 82.432.121 121.771-5.002 14.055-10.802 24.515-16.986 24.515s-11.984-10.46-16.986-24.515c-14-39.338-13.718-82.375.121-121.771l16.865-48.013z" fill="#a8db58"/></g><g><path d="m178.661 80.434 16.865-48.013 16.865 48.013c5.147 14.653 8.415 29.81 9.774 45.093 2.321-26.054-.994-52.517-9.774-77.514l-16.864-48.013-16.865 48.013c-8.781 24.998-12.095 51.46-9.774 77.514 1.358-15.283 4.626-30.44 9.773-45.093z" fill="#8ecc3e"/></g><g><path d="m148.709 132.25h37.758l3.979-27.136c6.778-46.221-41.264-80.856-82.765-59.668 29.806 13.542 47.078 45.242 42.35 77.725z" fill="#8ecc3e"/></g><g><path d="m107.681 45.445c2.637 1.198 5.171 2.546 7.605 4.016 35.071-3.334 67.652 27.18 61.992 65.784l-2.493 17.005h11.682l3.979-27.136c6.777-46.221-41.264-80.856-82.765-59.669z" fill="#75af23"/></g><g><path d="m243.219 132.25h-37.758l-3.979-27.136c-6.778-46.221 41.264-80.856 82.765-59.668-29.806 13.542-47.078 45.242-42.35 77.725z" fill="#8ecc3e"/></g><g><path d="m214.651 117.272c-5.506-37.548 25.166-67.45 59.119-65.991 3.289-2.201 6.787-4.158 10.478-5.836-41.501-21.187-89.543 13.448-82.765 59.668l3.979 27.136h11.385z" fill="#75af23"/></g></g><g><g><path d="m221.382 462.941c-3.313 0-6-2.687-6-6v-12.082c0-3.313 2.687-6 6-6s6 2.687 6 6v12.082c0 3.313-2.686 6-6 6z" fill="#913a8d"/></g><g><path d="m170.545 464.206c-3.313 0-6-2.686-6-5.999l-.003-13.569c0-3.314 2.685-6.001 5.999-6.001h.001c3.313 0 6 2.686 6 5.999l.003 13.569c0 3.314-2.685 6.001-5.999 6.001z" fill="#913a8d"/></g><g><path d="m246.801 456.615c-3.313 0-5.999-2.685-6-5.999l-.003-11.118c-.001-3.313 2.685-6 5.999-6.001h.001c3.313 0 5.999 2.685 6 5.999l.003 11.118c.001 3.313-2.685 6-5.999 6.001z" fill="#913a8d"/></g></g><g><g><g><path d="m244.251 91.656-23.412 30.825-24.875-51.025-23.657 50.151-24.631-29.951.133.36c9.942 26.884-2.292 56.929-28.157 69.129-51.822 24.444-90.652 72.547-90.652 131.115 0 85.197 83.336 154.106 166.962 154.262 101.711.19 167.414-79.172 166.962-154.262-.353-58.595-38.765-106.997-90.527-131.413-25.889-12.211-38.127-42.291-28.146-69.191z" fill="#ba4aa5"/></g><g><path d="m297.255 324.944c-83.626-.156-166.962-69.066-166.962-154.262 0-5.793.394-11.478 1.129-17.054-3.52 2.935-7.449 5.48-11.769 7.518-51.822 24.444-90.652 72.547-90.652 131.115 0 85.197 83.336 154.106 166.962 154.262 92.155.172 154.75-64.961 165.362-133.053-19.211 7.347-40.686 11.517-64.07 11.474z" fill="#af46a0"/></g><g><path d="m362.925 292.261c-.247-40.969-19.113-76.941-48.126-103.229-.804-.013-1.607-.031-2.415-.031-80.971 0-146.611 65.773-146.611 146.908 0 43.624 18.983 82.8 49.115 109.706 90.86-8.964 148.461-83.031 148.037-153.354z" fill="#9e3f95"/></g><g><path d="m62.427 301.379c0-58.568 38.83-106.671 90.652-131.115 25.579-12.065 37.812-41.582 28.463-68.236l-9.235 19.579-24.631-29.951.133.36c9.942 26.884-2.292 56.929-28.157 69.129-51.822 24.444-90.652 72.547-90.652 131.115 0 76.466 67.133 139.8 141.353 152.093-59.802-22.909-107.926-78.234-107.926-142.974z" fill="#9e3f95"/></g></g><path d="m150.832 433.97c-48.264-33.965-77.079-87.119-77.079-142.188 0-26.408 6.327-51.623 18.804-74.945 1.563-2.922.461-6.558-2.46-8.121-2.923-1.563-6.558-.461-8.121 2.46-13.419 25.083-20.223 52.203-20.223 80.606 0 57.895 29.626 113.709 79.399 149.99v8.842c0 3.313 2.687 6 6 6s6-2.687 6-6v-10.126c.664-2.377-.186-5.016-2.32-6.518z" fill="#913a8d"/><g><path d="m248.904 444.878c-1.808 0-3.594-.813-4.775-2.362-2.009-2.635-1.502-6.4 1.132-8.41 44.581-33.999 73.199-89.851 72.91-142.29-.146-26.453-6.5-51.685-18.888-74.997-1.555-2.926-.443-6.559 2.483-8.114 2.927-1.554 6.559-.443 8.114 2.483 13.308 25.043 20.135 52.148 20.292 80.561.309 56.073-30.164 115.696-77.633 151.898-1.087.83-2.366 1.231-3.635 1.231z" fill="#913a8d"/></g><path d="m279.062 231.786c-1.152-3.107-4.605-4.692-7.711-3.541-3.107 1.152-4.692 4.604-3.541 7.711 6.591 17.781 9.988 36.575 10.094 55.859.274 49.78-23.599 99.475-62.458 133.003 12.658-24.446 21.431-51.002 26.147-79.278 5.991-35.924 5.216-72.885-2.303-109.856-.66-3.247-3.827-5.343-7.075-4.684-3.247.66-5.344 3.828-4.684 7.075 14.425 70.927 3.144 140.514-31.712 197.054-36.031-58.59-47.697-130.878-31.926-199.921.738-3.23-1.283-6.447-4.513-7.185-3.23-.74-6.448 1.283-7.185 4.513-14.966 65.521-6.259 133.878 23.721 191.778-38.72-33.569-61.893-82.213-61.893-132.533 0-19.478 3.066-38.307 9.114-55.962 1.074-3.135-.597-6.547-3.732-7.621-3.137-1.074-6.547.597-7.621 3.732-6.477 18.91-9.761 39.047-9.761 59.851 0 62.723 33.622 122.948 87.942 158.014v12.204c0 3.313 2.687 6 6 6s6-2.687 6-6v-12.193c26.095-16.751 48.099-40.204 63.752-68.055 15.991-28.454 24.355-59.576 24.188-90.003-.116-20.688-3.764-40.863-10.843-59.962z" fill="#913a8d"/></g></g><g><g><g><ellipse cx="312.385" cy="335.909" fill="#e086dc" rx="126.616" ry="126.645"/></g><g><ellipse cx="312.385" cy="335.909" fill="#ffddf4" rx="113.13" ry="112.954"/></g></g><g><g><path d="m312.385 429.387c-51.532 0-93.455-41.934-93.455-93.477s41.924-93.477 93.455-93.477 93.456 41.934 93.456 93.477-41.924 93.477-93.456 93.477z" fill="#e086dc"/></g><g><path d="m312.385 417.318c-44.878 0-81.389-36.519-81.389-81.408s36.511-81.408 81.389-81.408 81.39 36.519 81.39 81.408-36.512 81.408-81.39 81.408z" fill="#ffddf4"/></g></g><g><g><path d="m312.385 396.219c-33.247 0-60.296-27.055-60.296-60.31s27.048-60.31 60.296-60.31 60.296 27.055 60.296 60.31-27.049 60.31-60.296 60.31z" fill="#e086dc"/></g><g><path d="m312.385 385.263c-27.208 0-49.342-22.14-49.342-49.354s22.135-49.354 49.342-49.354c27.208 0 49.343 22.14 49.343 49.354s-22.136 49.354-49.343 49.354z" fill="#ffddf4"/></g></g><g><g><path d="m312.385 363.051c-14.962 0-27.136-12.176-27.136-27.142s12.173-27.142 27.136-27.142 27.136 12.176 27.136 27.142-12.173 27.142-27.136 27.142z" fill="#e2a1dc"/></g><g><path d="m312.385 351.173c-8.415 0-15.26-6.848-15.26-15.264s6.846-15.264 15.26-15.264c8.415 0 15.261 6.848 15.261 15.264s-6.846 15.264-15.261 15.264z" fill="#ffddf4"/></g></g></g><path d="m356.107 44.838h-10.207v-10.211c0-3.314-2.687-6-6-6-3.314 0-6 2.687-6 6v10.211h-10.207c-3.313 0-6 2.687-6 6s2.687 6 6 6h10.207v10.21c0 3.314 2.687 6 6 6 3.314 0 6-2.687 6-6v-10.21h10.207c3.313 0 6-2.687 6-6s-2.687-6-6-6z" fill="#af46a0"/><g><path d="m66.479 138.888c-13.92 0-25.246-11.493-25.246-25.621s11.325-25.621 25.246-25.621 25.246 11.494 25.246 25.621-11.326 25.621-25.246 25.621zm0-39.241c-7.304 0-13.246 6.11-13.246 13.621 0 7.51 5.942 13.621 13.246 13.621s13.246-6.11 13.246-13.621c-.001-7.511-5.943-13.621-13.246-13.621z" fill="#e0e0e0"/></g><g><path d="m400.744 209.439c-13.92 0-25.246-11.327-25.246-25.25s11.325-25.25 25.246-25.25 25.246 11.327 25.246 25.25c-.001 13.923-11.326 25.25-25.246 25.25zm0-38.5c-7.304 0-13.246 5.944-13.246 13.25s5.942 13.25 13.246 13.25 13.246-5.944 13.246-13.25-5.943-13.25-13.246-13.25z" fill="#e0e0e0"/></g><g><ellipse cx="233.84" cy="176.809" fill="#fff" rx="11.001" ry="17.248"/></g><g><path d="m200.927 200.555c.302 6.236-2.858 11.135-7.057 10.942s-7.848-5.404-8.15-11.639c-.302-6.236 2.858-11.135 7.057-10.942s7.848 5.404 8.15 11.639z" fill="#fff"/></g><g><path d="m249.826 317.54c.201 4.143-1.899 7.397-4.688 7.269s-5.214-3.59-5.414-7.733 1.899-7.397 4.688-7.269c2.79.128 5.214 3.59 5.414 7.733z" fill="#fff"/></g></g></svg>